<svg width="11" height="12" viewBox="0 0 11 12" fill="none" xmlns="http://www.w3.org/2000/svg">
<g clip-path="url(#clip0_1565_19412)">
<path d="M5.49941 0.015625C3.30274 0.015625 1.51562 1.80301 1.51562 4C1.51562 6.72652 5.08072 10.7292 5.23251 10.8983C5.37508 11.0571 5.624 11.0568 5.76631 10.8983C5.9181 10.7292 9.48319 6.72652 9.48319 4C9.48315 1.80301 7.69606 0.015625 5.49941 0.015625ZM5.49941 6.00464C4.39421 6.00464 3.49509 5.10536 3.49509 4C3.49509 2.89463 4.39423 1.99537 5.49941 1.99537C6.60459 1.99537 7.50371 2.89465 7.50371 4.00002C7.50371 5.10539 6.60459 6.00464 5.49941 6.00464Z" fill="white"/>
</g>
<defs>
<clipPath id="clip0_1565_19412">
<rect width="11" height="11.0017" fill="white" transform="translate(0 0.015625)"/>
</clipPath>
</defs>
</svg>
